<svg width="80" height="80" viewBox="0 0 80 80" fill="none" xmlns="http://www.w3.org/2000/svg">
<path d="M60 6.66675C57 6.66675 53.3333 10.0001 53.3333 13.3334H26.6667C26.6667 10.0001 23 6.66675 20 6.66675H6.66667V36.6667C6.66667 40.0001 10 43.3334 13.3333 43.3334H20.6667C22 50.0001 26.3333 55.6667 36.6667 56.6667V63.6001C26.6667 65.1334 26.6667 73.3334 26.6667 73.3334H53.3333C53.3333 73.3334 53.3333 65.1334 43.3333 63.6001V56.6667C53.6667 55.6667 58 50.0001 59.3333 43.3334H66.6667C70 43.3334 73.3333 40.0001 73.3333 36.6667V6.66675H60ZM20 36.6667H13.3333V13.3334H20V36.6667ZM53.3333 38.3334C53.3333 44.7667 51.4 50.0001 40 50.0001C28.6333 50.0001 26.6667 44.7667 26.6667 38.3334V20.0001H53.3333V38.3334ZM66.6667 36.6667H60V13.3334H66.6667V36.6667Z" fill="#786556"/>
</svg>
