<svg width="80" height="80" viewBox="0 0 80 80" fill="none" xmlns="http://www.w3.org/2000/svg">
<path d="M16.6667 10C14.8986 10 13.2029 10.7024 11.9526 11.9526C10.7024 13.2029 10 14.8986 10 16.6667V63.3333C10 65.1014 10.7024 66.7971 11.9526 68.0474C13.2029 69.2976 14.8986 70 16.6667 70H63.3333C65.1014 70 66.7971 69.2976 68.0474 68.0474C69.2976 66.7971 70 65.1014 70 63.3333V16.6667C70 14.8986 69.2976 13.2029 68.0474 11.9526C66.7971 10.7024 65.1014 10 63.3333 10H16.6667ZM23.3333 30H33.3333C35.3333 30 36.6667 31.6667 36.6667 33.3333V50H31.6667V45H25V50H20V33.3333C20 31.6667 21.3333 30 23.3333 30ZM43.3333 30H55C57.8333 30 60 32.1667 60 35V38.3333C60 40.3333 58.6667 42.1667 57 43L60 50H55L52.1667 43.3333H48.3333V50H43.3333V30ZM25 35V40H31.6667V35H25ZM48.3333 35V38.3333H55V35H48.3333Z" fill="#7B8C55"/>
</svg>
