<svg width="80" height="80" viewBox="0 0 80 80" fill="none" xmlns="http://www.w3.org/2000/svg">
<path d="M20 6.6665C18.2319 6.6665 16.5362 7.36888 15.2859 8.61912C14.0357 9.86937 13.3333 11.5651 13.3333 13.3332V66.6665C13.3333 68.4346 14.0357 70.1303 15.2859 71.3805C16.5362 72.6308 18.2319 73.3332 20 73.3332H60C61.7681 73.3332 63.4638 72.6308 64.714 71.3805C65.9643 70.1303 66.6666 68.4346 66.6666 66.6665V26.6665L46.6666 6.6665H20ZM20 13.3332H43.3333V29.9998H60V66.6665H20V13.3332ZM26.6666 39.9998V46.6665H53.3333V39.9998H26.6666ZM26.6666 53.3332V59.9998H43.3333V53.3332H26.6666Z" fill="#5A7C99"/>
</svg>
