<svg width="80" height="80" viewBox="0 0 80 80" fill="none" xmlns="http://www.w3.org/2000/svg">
<path d="M40 16.6667C36.9058 16.6667 33.9383 17.8959 31.7504 20.0838C29.5625 22.2718 28.3333 25.2392 28.3333 28.3334C28.3333 31.4276 29.5625 34.3951 31.7504 36.583C33.9383 38.7709 36.9058 40.0001 40 40.0001C43.0942 40.0001 46.0617 38.7709 48.2496 36.583C50.4375 34.3951 51.6667 31.4276 51.6667 28.3334C51.6667 25.2392 50.4375 22.2718 48.2496 20.0838C46.0617 17.8959 43.0942 16.6667 40 16.6667ZM40 23.3334C41.3261 23.3334 42.5979 23.8602 43.5355 24.7979C44.4732 25.7356 45 27.0073 45 28.3334C45 29.6595 44.4732 30.9313 43.5355 31.8689C42.5979 32.8066 41.3261 33.3334 40 33.3334C38.6739 33.3334 37.4021 32.8066 36.4645 31.8689C35.5268 30.9313 35 29.6595 35 28.3334C35 27.0073 35.5268 25.7356 36.4645 24.7979C37.4021 23.8602 38.6739 23.3334 40 23.3334ZM18.3333 26.6667C16.1232 26.6667 14.0036 27.5447 12.4408 29.1075C10.878 30.6703 10 32.7899 10 35.0001C10 38.1334 11.7667 40.8334 14.3 42.2667C15.5 42.9334 16.8667 43.3334 18.3333 43.3334C19.8 43.3334 21.1667 42.9334 22.3667 42.2667C23.6 41.5667 24.6333 40.5667 25.4 39.3667C22.9716 36.202 21.6589 32.3225 21.6667 28.3334V27.4001C20.6667 26.9334 19.5333 26.6667 18.3333 26.6667ZM61.6667 26.6667C60.4667 26.6667 59.3333 26.9334 58.3333 27.4001V28.3334C58.3333 32.3334 57.0333 36.2001 54.6 39.3667C55 40.0001 55.4333 40.5001 55.9333 41.0001C57.4701 42.491 59.5255 43.3275 61.6667 43.3334C63.1333 43.3334 64.5 42.9334 65.7 42.2667C68.2333 40.8334 70 38.1334 70 35.0001C70 32.7899 69.122 30.6703 67.5592 29.1075C65.9964 27.5447 63.8768 26.6667 61.6667 26.6667ZM40 46.6667C32.2 46.6667 16.6667 50.5667 16.6667 58.3334V63.3334H63.3333V58.3334C63.3333 50.5667 47.8 46.6667 40 46.6667ZM15.7 48.5001C9.26667 49.2667 0 52.5334 0 58.3334V63.3334H10V56.9001C10 53.5334 12.3 50.7334 15.7 48.5001ZM64.3 48.5001C67.7 50.7334 70 53.5334 70 56.9001V63.3334H80V58.3334C80 52.5334 70.7333 49.2667 64.3 48.5001ZM40 53.3334C45.1 53.3334 50.8 55.0001 54.1 56.6667H25.9C29.2 55.0001 34.9 53.3334 40 53.3334Z" fill="#AA4E35"/>
</svg>
