<svg width="80" height="80" viewBox="0 0 80 80" fill="none" xmlns="http://www.w3.org/2000/svg">
<path d="M56.6667 13.3334V33.3334L50 26.6667L43.3333 33.3334V13.3334H30V66.6667H63.3333V13.3334H56.6667ZM10 23.3334V16.6667H16.6667V13.3334C16.6667 11.5653 17.369 9.86961 18.6193 8.61937C19.8695 7.36913 21.5652 6.66675 23.3333 6.66675H63.3333C66.8333 6.66675 70 9.83341 70 13.3334V66.6667C70 70.1667 66.8333 73.3334 63.3333 73.3334H23.3333C19.8333 73.3334 16.6667 70.1667 16.6667 66.6667V63.3334H10V56.6667H16.6667V43.3334H10V36.6667H16.6667V23.3334H10ZM16.6667 16.6667V23.3334H23.3333V16.6667H16.6667ZM16.6667 63.3334H23.3333V56.6667H16.6667V63.3334ZM16.6667 43.3334H23.3333V36.6667H16.6667V43.3334Z" fill="#786556"/>
</svg>
