<svg width="80" height="80" viewBox="0 0 80 80" fill="none" xmlns="http://www.w3.org/2000/svg">
<path d="M51.25 20.0001V72.5001M28.75 7.50006V60.0001M48.9484 19.4751L31.0516 8.02506C30.3397 7.66945 29.5532 7.48889 28.7574 7.4984C27.9617 7.50792 27.1798 7.70722 26.4766 8.07974L8.82969 19.9204C8.42821 20.1331 8.09228 20.4511 7.85801 20.8404C7.62373 21.2297 7.49996 21.6754 7.5 22.1297V68.3485C7.49996 68.7796 7.61142 69.2035 7.82356 69.5788C8.0357 69.9541 8.3413 70.2682 8.71068 70.4906C9.08006 70.7129 9.50067 70.836 9.93165 70.8478C10.3626 70.8596 10.7893 70.7597 11.1703 70.5579L26.4547 60.5907C27.1636 60.2151 27.9525 60.0156 28.7548 60.0091C29.5571 60.0025 30.3491 60.1892 31.0641 60.5532L48.5422 71.9594C49.2509 72.3206 50.0356 72.5074 50.831 72.5044C51.6264 72.5014 52.4096 72.3087 53.1156 71.9422L71.1516 60.0766C71.5579 59.8657 71.8986 59.5473 72.1364 59.156C72.3742 58.7648 72.5 58.3157 72.5 57.8579V11.6516C72.5 11.2205 72.3886 10.7967 72.1764 10.4213C71.9643 10.046 71.6587 9.73187 71.2893 9.50952C70.9199 9.28717 70.4993 9.16412 70.0684 9.15233C69.6374 9.14055 69.2107 9.24042 68.8297 9.44224L53.5172 19.4204C52.8148 19.7919 52.034 19.9906 51.2394 20.0001C50.4449 20.0096 49.6595 19.8296 48.9484 19.4751Z" stroke="#7B8C55" stroke-width="2.7451" stroke-linecap="round" stroke-linejoin="round"/>
</svg>
