<svg width="80" height="80" viewBox="0 0 80 80" fill="none" xmlns="http://www.w3.org/2000/svg">
<path d="M66.6667 16.6667V63.3333H13.3333V16.6667H66.6667ZM66.6667 10H13.3333C9.63333 10 6.66667 12.9667 6.66667 16.6667V63.3333C6.66667 67.0333 9.63333 70 13.3333 70H66.6667C70.3667 70 73.3333 67.0333 73.3333 63.3333V16.6667C73.3333 12.9667 70.3667 10 66.6667 10ZM60 50H20V56.6667H60V50ZM33.3333 23.3333H20V43.3333H33.3333V23.3333ZM40 30H60V23.3333H40V30ZM60 36.6667H40V43.3333H60V36.6667Z" fill="#5A7C99"/>
</svg>
